<?xml version="1.0" encoding="utf-8"?>
<!-- Generator: Adobe Illustrator 22.0.0, SVG Export Plug-In . SVG Version: 6.00 Build 0)  -->
<svg version="1.1" id="Слой_1" xmlns="http://www.w3.org/2000/svg" xmlns:xlink="http://www.w3.org/1999/xlink" x="0px" y="0px"
	 width="60px" height="60px" viewBox="0 0 60 60" style="enable-background:new 0 0 60 60;" xml:space="preserve">
<style type="text/css">
	.st0{fill:#FF5100;}
</style>
<g>
	<g>
		<path class="st0" d="M60,60H10.5C4.7,60,0,55.3,0,49.5v-39C0,4.7,4.7,0,10.5,0h39C55.3,0,60,4.7,60,10.5V60z M10.5,1.6
			c-4.9,0-8.9,4-8.9,8.9v39c0,4.9,4,8.9,8.9,8.9h47.9V10.5c0-4.9-4-8.9-8.9-8.9H10.5z"/>
	</g>
	<path class="st0" d="M30.7,40.8l-8.1-6.5c-0.1-0.1-0.1-0.1-0.2-0.2l0,0c-5.4,0.7-7.6,3.6-6.1,5.8l-0.2-0.2l13.7,10.9
		c0.2-0.2,0.8-0.9,1.6-1.8C33.6,46.6,33.2,42.9,30.7,40.8"/>
	<path class="st0" d="M46.4,23L33.3,12.6c-2.2-2-5.2-3.1-8.5-3.4h-0.1c-0.1,0-11.4,0.1-11.4,0v2.7c0,3.1,2.5,5.7,5.7,5.7h4.4
		c3.7,0,5.4,1.7,5.5,3.4c0,2.3-1.7,3.6-5.5,3.6h-2.7c-4.5,0-7.8,2-8.9,5.2c-1.1,3.4,0.4,7.2,4.1,9.9l0.3,0.2c-3.3-2.6-0.7-6.8,7.2-7
		c9.5-0.3,13.9-5.9,13.9-11.8c0-2.7-1-5.3-2.7-7.3l0,0c2.4,2.2,3.8,5.3,3.8,8.5c0,1.5-0.3,2.9-0.9,4.3l8,6.4
		c0.2-0.2,0.8-0.9,1.6-1.8C49.2,28.7,48.9,25,46.4,23"/>
	<path class="st0" d="M36.6,30.4l-1-0.8c-1.8,2-4.5,3.6-8.1,4.2l8.3,6.6c0.2-0.2,0.8-0.9,1.6-1.8C39.5,36.2,39.1,32.5,36.6,30.4"/>
</g>
</svg>
