<svg id="Слой_1" data-name="Слой 1" xmlns="http://www.w3.org/2000/svg" viewBox="0 0 550 80"><circle cx="268.41" cy="18.86" r="8.8" style="fill:none;stroke:#fff;stroke-linejoin:round;stroke-width:0.586839608351772px"/><path d="M269.72,14.85c1.46,0,2.45.65,2.18,2.22a2.46,2.46,0,0,1-2,2c1,.19,1.24.77,1.12,1.87,0,.35-.29,1.74,0,2.11h-.89c-.18-.29,0-1.4.08-1.83.16-1.54-.36-1.85-1.86-1.85H266l-.65,3.68h-.78L266,14.85Zm-3.63,3.93h2.33c1.16,0,2.43-.2,2.69-1.66.23-1.26-.7-1.6-1.76-1.6h-2.68Z" style="fill:#fff"/><path d="M107.41,10.06h11l.43-2.19H43.25l-.43,2.19H97.31L93.13,39.82C90.79,56.5,72.22,70.47,51.82,70.47s-35-14-32.68-30.69c0-.12-10.52,0-10.52,0-2.53,18,16.65,32.35,42.79,32.35s49.33-14.62,51.87-32.66Z" style="fill:#fff"/><path d="M170.54,54.36a3,3,0,0,0,0-.31L173,37.1H162.83l-.62,4.44c-5.25-2.9-12.57-4.67-20.9-4.67-17.5,0-32.79,7.83-34.14,17.49S118.9,71.85,136.4,71.85a52.49,52.49,0,0,0,22.21-4.67l-.69,4.9H168l2.45-17.41A2.87,2.87,0,0,0,170.54,54.36ZM136.48,71.17c-11.91,0-21.87-7.69-20.62-16.62S129.11,37.93,141,37.93s20.55,7.68,19.3,16.62S148.39,71.17,136.48,71.17Z" style="fill:#fff"/><path d="M295.9,53.36c.83-9.42-12.16-16.49-29.35-16.49-11.15,0-21.41,3.19-27.73,8-5-4.81-14.32-8-25.48-8a52.42,52.42,0,0,0-22.21,4.67l.62-4.44H181.63l-4.92,35h10.13l2.69-18.72c1.26-8.93,11.76-15.43,23.67-15.43,11.39,0,19.78,7,19.4,15.43L230,72.08h10.12l2.63-18.72c2.31-8.11,12.43-15.43,23.55-15.43,11.91,0,20.71,6.5,19.45,15.43l-2.5,18.72h10.13ZM238.82,44.9" style="fill:#fff"/><path d="M541.59,37.12a.66.66,0,0,0,0-.14H531.4c0,.11,0,.22,0,.32-1.23,8.76-11.88,16.3-23.79,16.3S487,46.06,488.23,37.3l.06-.32H478.24l0,.14c-1.19,8.49,9.23,15.53,24,16.9L499.71,72h10.12l2.52-17.91C527.73,52.81,540.38,45.7,541.59,37.12Z" style="fill:#fff"/><path d="M358.67,7.87l-59,0L299.26,10l11.27,0-1.8,12.78-1.14,8.13-5.8,41.24h10.07l2.76-19.6c7.72,6.56,20.53,10.79,35.58,10.79,26.07,0,49-12.68,51.17-28.23S384.46,8.05,358.67,7.87Zm-8.3,53.83c-19.43,0-34-11.35-33.57-24.71h0l3.8-27.05,37.31-.14c20.18.11,34.95,11.16,33,25.29S370.71,61.7,350.37,61.7Z" style="fill:#fff"/><path d="M466.68,54.23l0-.31,2.38-17H459l-.63,4.45c-5.25-2.9-12.57-4.67-20.89-4.67-17.5,0-32.79,7.83-34.15,17.49S415,71.72,432.53,71.72a52.42,52.42,0,0,0,22.21-4.67l-.69,4.9h10.12l2.45-17.41ZM432.61,71C420.7,71,410.74,63.35,412,54.42S425.25,37.8,437.16,37.8s20.55,7.68,19.29,16.62S444.52,71,432.61,71Z" style="fill:#fff"/></svg>