<svg id="Sloy_2" data-name="Sloy_2" xmlns="http://www.w3.org/2000/svg" viewBox="0 0 200 200"><path d="M155.53,86.73c.84.57,3.38,3.15,4.05,3.81a19.75,19.75,0,0,1,2.22,2.81,26.7,26.7,0,0,1,4.27,9.87,70.35,70.35,0,0,1,.77,8.42,30.83,30.83,0,0,1-.83,5.64,31.89,31.89,0,0,1-3.69,6.32c-1.92,2.33-7.48,5.56-7.72,5.65a5.34,5.34,0,0,0-.71.37c.26.13.52.45.75.42a18.73,18.73,0,0,0,2-.52c.31-.08,3.08-1.08,3.53-1.09,0,0-2.09,1.75-2.19,1.84a7.33,7.33,0,0,1-2.74,1.67c-3.92,1.63-5.57.95-8.33.46a35.26,35.26,0,0,1-5.72-2.27,1.15,1.15,0,0,1-.52-.84c.1-1.4-.06-2.61-1.44-3.4-.2-.12-.21-.65-.21-1,0-.57-.74-.61-.74-.61-.05-1.22.83-.77,1.27-.84l.75.87.45-1.45a9.31,9.31,0,0,1-2.49-2.1c-.1-4.72.72-7.19,2.54-11.21a8.12,8.12,0,0,1,2.4-2.45c1.14-1,6.59-5.58,7-6,0,0,1.85-2.68,1-4.3a2.72,2.72,0,0,0-1.5-1.2c-.57-.17-1.44-.54-1.8.5-.12.34-.6.81-.52.9.39.48.65,1.29,1.57.95a3.42,3.42,0,0,1,.91,0c-.52.62-.82,1.22-1.29,1.44a1.22,1.22,0,0,1-1.43-.4c-1.64-1.94-.69-1.76-.85-3-.1-.76,2.49-2.42,3.31-2.15a5.44,5.44,0,0,1,2.49,1.35A22.45,22.45,0,0,0,154,97.06c.07.06.56-.16.59-.31.86-5.38.86-7.85-.74-11.22C153.86,85.53,155,86.35,155.53,86.73Zm-15.65,30c0,.42,0,.85,0,1.28,0,.14.14.39.31.4s.33-.23.35-.37a5.09,5.09,0,0,1,.81-2.35c.88-1.25,3.53-6.41,4.34-7.38.23-.27,2.25-2.22,3-3a.79.79,0,0,0,.24-.46.41.41,0,0,0-.25-.33.88.88,0,0,0-.52.15c-.69.49-1.38,1-2,1.52a18.7,18.7,0,0,0-2.81,2.62,45.6,45.6,0,0,0-2.66,5.24C140.57,114.4,139.79,116.73,139.88,116.77Z" style="fill:none;stroke:#fff;stroke-miterlimit:10;stroke-width:0.7px"/><path d="M131.15,136c1.06,0,2.3-.79,3.45-1.19.07,0,1.13-1.06,1.57-1.51.15-.14.39-.42.27-.61s-.5-.1-.69,0-2.47,1.81-3.64,1.6c-.09,0-1.07.55-1.46.66s-.66,0-1,.07c-.15,0-.42.14-.42.32s.28.34.45.38C130.15,135.79,131.08,136,131.15,136Z" style="fill:none;stroke:#fff;stroke-miterlimit:10;stroke-width:0.7px"/><path d="M152.61,84.19a3.59,3.59,0,0,1,0-1.13c0-.06.23-.16.31-.13s.28.18.29.29c.05.41.33.93.06,1.24C153.29,84.46,152.65,84.33,152.61,84.19Z" style="fill:none;stroke:#fff;stroke-miterlimit:10;stroke-width:0.7px"/><path d="M107.05,92.3m-3.68,23.76,16.74-9.89c-1.06-.23-2,.41-2.8-.61,0-.07-2-.14-2.23-.8-.1-.25-.91-.22-1.5-.34a8.13,8.13,0,0,1-.09,1.41c-.12.48-1,3.91-1,4.36h-.31c0-.3-.14-2.09-.15-2.68,0-.86-.25-1.33-1.31-1.31-4,.07-8-.06-11.94.06a18.09,18.09,0,0,0-4.62,1,2.91,2.91,0,0,0-1.81,3.32c.34,1.2.85,2.35,1.26,3.53.12.37,1.77,5.73,1.8,5.88.1.48.7,2.07.76,2.63a55.14,55.14,0,0,1-12.36-7.67A21,21,0,0,1,87,110.65a4.27,4.27,0,0,1,2.32-2.16c.39-.13,7.7-6.31,8.6-7.07.73-.61,1.54-1.15,2.21-1.82a7.89,7.89,0,0,0,1-1.58,46.34,46.34,0,0,1,4.11-4.67c.6-.33.86-1.29,1.78-1v0s0,0,0,0c0,.58,0,1.17,0,1.75.05,1.64.68,2.8,2.29,3.23a8.23,8.23,0,0,0,2.4.32,2.48,2.48,0,0,1,3.46.39c.58.58,1.26,1.07,1.89,1.6.26.22,1.84,1.51,1.88,1.52,1.11.11,1.22.87,1.2,1.76S120.11,105,120.11,106.17Zm8.39-29.7c-.52,0-1,0-1.58-.08l0-.45,2.23-.23" style="fill:none;stroke:#fff;stroke-miterlimit:10;stroke-width:0.7px"/><path d="M126.37,139.1a14.08,14.08,0,0,1-1.31-1.37c-.4-.57-1.69-2.75-2.49-4s-1.06-1.48-2.16-1.3a17.88,17.88,0,0,0-1.93.41c-.3.09-1.68.85-2.13,1a6.34,6.34,0,0,1-1.2-.77,9,9,0,0,1-1.3-1.63c-1.18-1.47-1.16-1.47-2-1.47l-3.65-.78c-.09.2-.24.52-.16.62a27.54,27.54,0,0,0,2.29,2.65c1.51,1.46,3.1,2.85,4.65,4.27.33.3.63.62,1,.93.49.46,2.78,1.93,3.17,2.42a9.18,9.18,0,0,0,2.93,2.44,12.4,12.4,0,0,0,1.34.62c.68.29,2.47.82,3.11,2.06a3.61,3.61,0,0,1-.22,2.1l-.24.56c.19.09.43.29.57.23a5.1,5.1,0,0,0,1.42-.76c.91-.8,2-1.53,2-3a5.47,5.47,0,0,0-.6-2.58C128.64,140.48,127.3,140.08,126.37,139.1Z" style="fill:none;stroke:#fff;stroke-miterlimit:10;stroke-width:0.7px"/><path d="M128.5,76.47c-.52,0-1,0-1.58-.08l0-.45,2.25-.23,1.68-1c0-.36,0-1.29-.28-1.46a25.69,25.69,0,0,0-3.45-1.6c-.87-.36-1.77-.64-2.65-1-.06,0-4.16-2.67-5-3.29-.11-.08-.08-.63,0-.62,1.39.4,1.51-2,1.75-2.24.53-.58,7.36-7.27,8-7.92a6.24,6.24,0,0,1,2.75-1.41c1.91,0,6.4,0,6.7-.13a.68.68,0,0,0,.21-.59A15.35,15.35,0,0,0,136.17,52a51.17,51.17,0,0,1-5.12-1.55c-.83-.44-4.7.82-5,.3-.44-.76-10.09,1.95-13.38,4.08-.58.38-1.35.59-1.72,0s-3.2.3-3.44,1a1.31,1.31,0,0,1-1.16.08c-.67-.56-2.69-3.4-3.33-4-.44-.42-1.85-2.8-2.34-3.33a14.65,14.65,0,0,0-2-1.85,7.25,7.25,0,0,0-2.49-1.14,7.7,7.7,0,0,0,.86,3c.71,1.11.62,3,.82,4.12a20.18,20.18,0,0,1-.06,2,.49.49,0,0,1-.24.37,6.68,6.68,0,0,1-1.18-.65A44.39,44.39,0,0,0,97.81,63c.32.87.67,1.77,1,2.66,0,.06.06.14.11.15,1,.27.8,1.41,1.3,2.08.92,1.22-.83,2.38-.78,3.72,0,0-.13,0-.17.08-.19.26-.57.56-.53.78.19,1.16-.52,2.38.61,3.52.67.68.77,1.94,1.17,3.08a7.13,7.13,0,0,0,2.89-.82c.66-.23,1.32-.42,2-.59.17,0,.45,0,.53.06.9,1.13,1.76,2.28,2.64,3.42.12.15.74.1.9,0,.55-.4,1.09-.81,1.67-1.15.13-.07.42.16.63.25-.13.15-.24.31-.38.45-.38.37-.79.7-1.14,1.09-.63.72-1.18,1.52-1.85,2.21s-3.93,4.06-4.84,5.16c-.26.31-2.56,2.83-3.45,3.78-.33.34-6.3,6.33-6.64,6.7s-.88.85-1.24,1.33S89.56,104,89,104.79a20.51,20.51,0,0,1-2.64,3.28,1.79,1.79,0,0,1-2,.43,8.21,8.21,0,0,1-1.63-1.23c-.32.19-1.8.91-2.24,1.16a3.17,3.17,0,0,1-2.36-.06,7.06,7.06,0,0,1-1.63-1.31,43,43,0,0,1-4-8.09c-1.31-3.11-2.68-6-2.63-6.63-1.39-.29-2.23,0-2.17.94.1,1.53,3.89,11.25,5,12.76.94,1.29,4.28,5.25,5,6,.36.34.4.46.09.82a3.85,3.85,0,0,0-.15,3.09,3.26,3.26,0,0,0,3.38,1,.78.78,0,0,0,.44-.3c.47-.62,1-.61,1.54-.06a15.5,15.5,0,0,0,1.41,1.13c.68.52,9.17,5.6,10,5.95a.3.3,0,0,1,.14.13c0,.66.57.46.92.62a4.5,4.5,0,0,1,1.74,1c.73,1,1.61,1.89,1.64,3.24a1.34,1.34,0,0,0,.25.49,54.68,54.68,0,0,1,3.15,5.87c.46.79,2.51,4.81,2.56,4.88.42.54,3.53,5.56,3.88,6.21,0,.12,3.28,4,3.87,4.76a27.94,27.94,0,0,0,3.43,3.9c.72.62,1.65.82,2.24,2.14-.59,1.15-.62,1.44-1.71,1.23-.15,0-.55-.08-.55.37,0,1.2,4.14,2,5.72,1.2.89-.82.47-.73.71-1.09a16.69,16.69,0,0,0-.79-5.14,11.59,11.59,0,0,1-.73-1.93,23.2,23.2,0,0,1-.74-2.72c0-.82,0-1.64,0-2.46A3.4,3.4,0,0,0,118,143.4c-.24-.08-.66-.1-.76,0-.7,1-2,.64-2.87.6s-1.78.51-2.76-.61a26.8,26.8,0,0,1-2.23-3.15c-.77-1.18-1.63-3.89-2.27-4.88a12.49,12.49,0,0,1-1.07-3.81c0-.13-.56-2.2-.78-3.23,1,.07,1.87.1,2.72.18l19.43,2.21c.41-1.44.38-1.48-1.06-1.5s-3-.1-4.45-.06c-1.77,0-5.89,0-13-2.34a34.56,34.56,0,0,0-4.5-.93s-2.84-11.39-2.79-11.39c.37,0,1.34,0,1.21.1s1.92,9.71,1.92,9.71a43.82,43.82,0,0,0,4.84,1.75,9.48,9.48,0,0,0,1.37-.27c-.19-.32-.22-1.07-.73-2.35s-.82-3.29-2.47-4.94c-.11-.11-.49-.35-.67-.5.18-.13.31-.27.38-.25.46.13.91.31,1.37.45a43.58,43.58,0,0,1,4.79,2.2c0,.74,0,1.53,0,2.32a1.78,1.78,0,0,0,1.63,1.54c1.85,0,3.69,0,5.53,0,.26,0,4.46-.89,4.92-1a31.08,31.08,0,0,0,4.8-2.16c.53-.46,3.53-3.25,4.52-4.18s1-2.16,1.36-3.22a15.08,15.08,0,0,0,.11-4.31,39.74,39.74,0,0,0-2.5-5.6c-.89-1-2-1.74-2.91-2.63a82.2,82.2,0,0,1-6.72-6.8c-.44-.75-3.44-5.42-3.56-8.75,1.89,0,3.63.11,5.36,0a11.17,11.17,0,0,0,3.56-.82s1.62-.82,1.72-.92c5.12-5.6,6.76-8.07,9.23-10.87.33-.19,1.82-3,3.31-3.17a2.49,2.49,0,0,0-.6-.59s-1.89,0-2.07.77a18.61,18.61,0,0,1-2.7,2.39,14.45,14.45,0,0,1-.44-1.9c0-.16-.31-.34-.5-.39s-.38.31-.35.44a3.53,3.53,0,0,1-.51,2.53,10.36,10.36,0,0,1-5.08,4.83c-.57.6-1.13.32-1.7.11.37-.53,1.29-1.73,1.43-1.88a2.7,2.7,0,0,0-.65-.3Z" style="fill:none;stroke:#fff;stroke-miterlimit:10;stroke-width:0.7px"/><path d="M138.27,125.91h0l0,0Z" style="fill:none;stroke:#fff;stroke-miterlimit:10;stroke-width:0.7px"/><path d="M138.46,128.31a.7.7,0,0,1-.16-.44c0-.65.28-1.38,0-2a14.78,14.78,0,0,0-2.07-1.51,16.48,16.48,0,0,1-.93,1.41,8.52,8.52,0,0,0-2.06-2.29c-.35-.17-1.25-.88-1.61-.88a4,4,0,0,0-4,2.66,4.79,4.79,0,0,0,1.12,3.06c1.19.86.37,2.51-.45,4.15a14.31,14.31,0,0,0-.83,4.12c.6.82,4.08,1.34,4.79.59s3.67-2.33,4.4-3,1.63-1.37,1.58-2.59a.84.84,0,0,1,.22-.53A2,2,0,0,0,138.46,128.31Z" style="fill:none;stroke:#fff;stroke-miterlimit:10;stroke-width:0.7px"/><path d="M137.28,130c0-.35.31-.71.58-.67s.33.54.32.8-.12.71-.39.71S137.24,130.39,137.28,130Z" style="fill:none;stroke:#fff;stroke-miterlimit:10;stroke-width:0.7px"/><path d="M136.51,127.4c0-.44-.07-1,.27-1.26.11-.09.41,0,.41.09,0,.5,0,1,0,1.49C137.12,127.73,136.51,127.5,136.51,127.4Z" style="fill:none;stroke:#fff;stroke-miterlimit:10;stroke-width:0.7px"/><polygon points="31.7 106.77 21.65 100.5 10.78 105.23 13.64 93.73 5.79 84.86 17.6 84.02 23.61 73.81 28.06 84.8 39.63 87.36 30.56 94.98 31.7 106.77" style="fill:none;stroke:#fff;stroke-miterlimit:10;stroke-width:0.7px"/><polygon points="36.92 92.29 40.48 102.31 50.09 97.75 45.52 107.36 55.55 110.92 45.52 114.48 50.09 124.09 40.48 119.53 36.92 129.55 33.35 119.53 23.74 124.09 28.31 114.48 18.29 110.92 28.31 107.36 23.74 97.75 33.35 102.31 36.92 92.29" style="fill:none;stroke:#fff;stroke-miterlimit:10;stroke-width:0.7px"/><polygon points="178.78 40 182.22 48.7 191.16 45.96 186.5 54.07 194.22 59.35 184.97 60.77 185.65 70.09 178.78 63.74 171.91 70.09 172.59 60.77 163.35 59.35 171.06 54.07 166.41 45.96 175.35 48.7 178.78 40" style="fill:none;stroke:#fff;stroke-miterlimit:10;stroke-width:0.7px"/></svg>